<?xml version="1.0" standalone="no"?>
<!DOCTYPE svg PUBLIC "-//W3C//DTD SVG 1.1//EN" "http://www.w3.org/Graphics/SVG/1.1/DTD/svg11.dtd" >
<svg xmlns="http://www.w3.org/2000/svg">
<metadata>Generated by IcoMoon</metadata>
<defs>
<font id="icons" horiz-adv-x="1024">
<font-face units-per-em="1024" ascent="960" descent="-64" />
<missing-glyph horiz-adv-x="1024" />
<glyph unicode="&#x20;" horiz-adv-x="512" d="" />
<glyph unicode="&#xe900;" glyph-name="facebook" horiz-adv-x="494" d="M0 612.193h105.844v102.894c0 45.336 1.144 115.357 34.137 158.706 34.679 45.817 82.363 77.065 164.305 77.065 133.599 0 189.833-19.086 189.833-19.086l-26.491-156.839c0 0-44.071 12.764-85.253 12.764s-78.088-14.751-78.088-55.932v-119.571h168.881l-11.801-153.106h-157.080v-532.23h-198.442v532.23h-105.844v153.106z" />
<glyph unicode="&#xe901;" glyph-name="instagram" d="M826.1 950.857h-628.139c-109.155 0-197.96-88.745-197.96-197.84v-628.199c0-109.155 88.805-197.9 197.96-197.9h628.139c109.155 0 197.9 88.805 197.9 197.9v628.199c0 109.095-88.805 197.84-197.9 197.84zM882.875 832.851l22.638 0.060v-173.577l-173.035-0.542-0.602 173.577 150.999 0.482zM365.938 543.978c32.753 45.396 85.855 75.138 146.062 75.138 60.147 0 113.37-29.742 146.122-75.138 21.373-29.622 34.137-65.866 34.137-105.121 0-99.341-80.918-180.199-180.26-180.199s-180.199 80.858-180.199 180.199c0 39.255 12.764 75.5 34.137 105.121zM924.237 124.757c0-54.126-43.951-98.137-98.137-98.137h-628.139c-54.186 0-98.137 43.951-98.137 98.137v419.221h152.865c-13.246-32.512-20.651-67.974-20.651-105.121 0-154.371 125.592-280.023 279.962-280.023s279.962 125.652 279.962 280.023c0 37.148-7.466 72.61-20.651 105.121h152.865v-419.221z" />
<glyph unicode="&#xe902;" glyph-name="youtube" horiz-adv-x="1458" d="M1012.254 438.128l-477.489-280.372v560.829l477.489-280.458zM1458.276 178.163v521.389c0 0 0 251.306-251.391 251.306h-955.665c0 0-251.22 0-251.22-251.306v-521.389c0 0 0-251.306 251.22-251.306h955.665c0 0 251.391 0 251.391 251.306z" />
<glyph unicode="&#xe903;" glyph-name="user" d="M505.984 304.457c-46.464 0-95.424 17.92-134.464 49.152-56.256 42.176-90.304 112.576-90.304 187.648 0 130.56 103.552 236.8 230.784 236.8 63.040 0 123.2-26.56 164.864-72.896 41.216-45.632 60.224-105.088 53.696-167.232 0.192-71.744-33.856-142.144-90.944-184.96-38.208-30.528-87.168-48.512-133.632-48.512zM512 714.057c-91.968 0-166.784-77.504-166.784-172.8 0-55.040 24.512-106.304 65.536-137.024 56.512-45.312 134.848-44.608 189.696-0.64 41.792 31.36 66.304 82.624 66.304 137.664 4.736 47.232-8.576 89.088-37.376 121.088-29.632 32.832-72.384 51.712-117.376 51.712zM186.688 57.481c-8.32 0-16.512 3.264-22.656 9.344-100.672 100.8-153.856 229.376-153.856 372.032 0 283.328 225.152 513.856 501.824 513.856 276.736 0 501.888-230.528 501.888-513.856 0-139.52-59.2-271.872-166.72-372.672-8.896-8.384-21.888-10.88-33.28-6.656-11.456 4.352-19.392 14.848-20.48 27.072-9.984 109.632-74.368 205.696-169.536 254.848-71.488-47.36-163.904-47.424-235.648 0-91.2-47.552-154.176-142.016-169.728-256.32-1.664-12.032-9.984-22.144-21.504-25.984-3.392-1.088-6.848-1.664-10.304-1.664zM620.416 410.633c4.352 0 8.832-0.896 12.992-2.752 105.344-46.784 182.656-139.648 212.16-250.496 68.416 81.408 104.256 177.664 104.256 281.472 0 248.064-196.416 449.856-437.888 449.856s-437.76-201.792-437.76-449.856c0-104.384 32.448-200.256 94.464-280.512 32.768 113.408 108.16 204.224 209.92 249.472 10.816 4.864 23.616 3.2 33.024-4.224 54.976-44.032 134.080-44.032 188.928 0 5.696 4.608 12.8 7.040 19.904 7.040zM518.016-74.999c-132.864 0-256.384 50.368-347.904 141.888-6.72 6.656-10.112 16.064-9.28 25.472 12.672 138.944 98.368 259.84 223.68 315.52 10.88 4.864 23.68 3.264 33.024-4.288 54.912-43.968 134.208-43.968 188.864 0 9.344 7.552 21.952 9.216 33.024 4.288 119.744-53.248 209.92-173.056 235.328-312.704 1.92-10.688-1.728-21.696-9.728-29.12-97.92-90.944-221.12-141.056-347.008-141.056zM226.368 101.513c78.208-72.704 181.184-112.576 291.712-112.576 104 0 206.464 39.68 290.176 112.064-24.064 105.216-90.624 194.88-178.432 240.448-71.68-47.104-164.544-46.976-235.584 0-90.88-46.912-153.664-136.512-167.872-239.936z" />
<glyph unicode="&#xe904;" glyph-name="search" d="M890.304-82.359c-33.792 0-66.176 13.76-91.136 38.72l-202.176 202.176c-12.48 12.48-12.48 32.768 0 45.248l6.528 6.592c30.080 22.912 54.080 41.024 71.68 58.688 28.544 21.76 44.16 46.272 52.864 63.552 1.472 3.072 3.52 5.824 5.952 8.256l6.464 6.464c6.016 6.016 14.144 9.344 22.656 9.344v0c8.512 0 16.64-3.392 22.656-9.344l202.176-202.24c22.144-18.24 36.288-47.552 37.824-80.64 1.728-38.656-14.4-78.144-44.352-108.032-25.024-25.024-57.408-38.784-91.136-38.784zM667.392 178.825l177.088-177.152c25.664-25.792 65.856-25.92 91.712 0 17.28 17.344 26.624 39.104 25.664 59.904-0.704 14.848-6.656 27.84-17.024 36.288l-176.832 176.768c-14.464-21.12-31.68-39.36-51.008-53.76-12.736-13.184-30.656-27.584-49.6-42.048zM422.912 99.337v0c-114.56 0-221.824 44.224-302.080 124.48-162.048 169.024-161.856 437.76 0 599.616 82.176 78.72 189.312 121.856 302.272 121.856 113.216 0 218.816-43.264 297.344-121.856 138.944-138.944 164.544-348.416 63.744-521.344-22.528-30.336-42.88-57.408-63.808-78.336-17.792-24.384-46.592-47.936-80-64.704-63.232-38.592-139.264-59.712-217.472-59.712zM423.104 881.353c-96.32 0-187.776-36.8-257.472-103.616-136.896-136.96-136.704-365.504 0.96-509.184 67.712-67.712 158.912-105.28 256.32-105.28v0c66.432 0 130.944 17.856 186.56 51.712 19.456 9.856 43.904 25.344 62.72 50.624 20.736 21.12 39.68 46.4 58.048 70.784 84.608 145.28 63.040 323.712-55.040 441.728-66.432 66.624-155.968 103.232-252.096 103.232z" />
<glyph unicode="&#xe905;" glyph-name="bag" d="M835.392-78.199h-646.784c-17.664 0-32 14.336-32 32v808.448c0 17.664 14.336 32 32 32h646.72c17.664 0 32-14.336 32-32v-808.448c0.064-17.664-14.272-32-31.936-32zM220.608-14.199h582.72v744.448h-582.72v-744.448zM188.608 201.353h662.848v-64h-662.848v64zM188.608 309.193h662.848v-64h-662.848v64zM705.664 762.249h-64c0 73.92-55.744 129.664-129.664 129.664s-129.664-55.744-129.664-129.664h-64c0 108.608 85.056 193.664 193.664 193.664s193.664-85.056 193.664-193.664z" />
<glyph unicode="&#xe906;" glyph-name="arrows-left" d="M79.744 438.857c0 9.152 3.904 17.792 10.688 23.872l521.28 465.472c9.408 8.384 22.912 10.496 34.368 5.312 11.52-5.184 18.944-16.576 18.944-29.248v-930.944c0-12.608-7.424-24.064-18.944-29.184-11.52-5.184-24.96-3.072-34.368 5.312l-521.28 465.472c-6.784 6.144-10.688 14.784-10.688 23.936zM601.024 832.841l-441.216-393.984 441.216-393.984v787.968zM358.976 438.857c0 9.152 3.904 17.792 10.688 23.872l521.28 465.472c9.408 8.384 22.912 10.496 34.368 5.312 11.52-5.184 18.944-16.576 18.944-29.248v-930.944c0-12.608-7.424-24.064-18.944-29.184-11.52-5.184-24.96-3.072-34.368 5.312l-521.28 465.472c-6.784 6.144-10.688 14.784-10.688 23.936zM880.256 832.841l-441.216-393.984 441.216-393.984v787.968z" />
<glyph unicode="&#xe907;" glyph-name="arrows-up" d="M512 871.113c9.152 0 17.792-3.904 23.872-10.688l465.472-521.28c8.384-9.408 10.496-22.912 5.312-34.368-5.184-11.52-16.576-18.944-29.248-18.944h-930.944c-12.608 0-24.064 7.424-29.184 18.944-5.184 11.52-3.072 24.96 5.312 34.368l465.472 521.28c6.144 6.784 14.784 10.688 23.936 10.688zM905.984 349.833l-393.984 441.216-393.984-441.216h787.968zM512 591.881c9.152 0 17.792-3.904 23.872-10.688l465.472-521.28c8.384-9.408 10.496-22.912 5.312-34.368-5.184-11.52-16.576-18.944-29.248-18.944h-930.944c-12.608 0-24.064 7.424-29.184 18.944-5.184 11.52-3.072 24.96 5.312 34.368l465.472 521.28c6.144 6.784 14.784 10.688 23.936 10.688zM905.984 70.601l-393.984 441.216-393.984-441.216h787.968z" />
<glyph unicode="&#xe908;" glyph-name="arrows-right" d="M944.256 438.857c0-9.152-3.904-17.792-10.688-23.872l-521.28-465.472c-9.408-8.384-22.912-10.496-34.368-5.312-11.52 5.184-18.944 16.576-18.944 29.248v930.944c0 12.608 7.424 24.064 18.944 29.184 11.52 5.184 24.96 3.072 34.368-5.312l521.28-465.472c6.784-6.144 10.688-14.784 10.688-23.936zM422.976 44.873l441.216 393.984-441.216 393.984v-787.968zM665.024 438.857c0-9.152-3.904-17.792-10.688-23.872l-521.28-465.472c-9.408-8.384-22.912-10.496-34.368-5.312-11.52 5.184-18.944 16.576-18.944 29.248v930.944c0 12.608 7.424 24.064 18.944 29.184 11.52 5.184 24.96 3.072 34.368-5.312l521.28-465.472c6.784-6.144 10.688-14.784 10.688-23.936zM143.744 44.873l441.216 393.984-441.216 393.984v-787.968z" />
<glyph unicode="&#xe909;" glyph-name="arrows-down" d="M512 6.601c-9.152 0-17.792 3.904-23.872 10.688l-465.472 521.28c-8.384 9.408-10.496 22.912-5.312 34.368 5.184 11.52 16.576 18.944 29.248 18.944h930.944c12.608 0 24.064-7.424 29.184-18.944 5.184-11.52 3.072-24.96-5.312-34.368l-465.472-521.28c-6.144-6.784-14.784-10.688-23.936-10.688zM118.016 527.881l393.984-441.216 393.984 441.216h-787.968zM512 285.833c-9.152 0-17.792 3.904-23.872 10.688l-465.472 521.28c-8.384 9.408-10.496 22.912-5.312 34.368 5.184 11.52 16.576 18.944 29.248 18.944h930.944c12.608 0 24.064-7.424 29.184-18.944 5.184-11.52 3.072-24.96-5.312-34.368l-465.472-521.28c-6.144-6.784-14.784-10.688-23.936-10.688zM118.016 807.113l393.984-441.216 393.984 441.216h-787.968z" />
<glyph unicode="&#xe90a;" glyph-name="update" d="M967.341 404.095c4.553 59.65-2.601 118.324-21.363 174.61-18.113 54.334-46.199 104.006-83.619 147.822-37.524 43.598-82.207 79.17-132.964 105.527-52.6 27.328-109.644 43.598-169.185 48.151-59.541 4.771-118.433-2.388-174.61-21.15-54.443-18.113-104.006-46.417-147.822-83.51-43.598-37.306-79.279-82.207-105.631-132.964-2.71-5.425-4.553-11.281-7.050-16.483l-24.187 66.591-48.805-17.677 55.419-148.689 138.82 77.109-25.703 45.010-52.6-29.825c71.253 140.881 221.567 233.284 388.914 220.16 220.487-17.246 386.199-210.831 368.849-431.427-17.568-220.809-211.158-386.199-431.749-368.413-183.394 14.318-328.61 150.205-362.557 322.754l-42.84 3.255c3.686-22.448 9.22-44.574 16.592-66.155 18.113-54.443 46.199-104.115 83.51-147.604 37.524-44.034 82.207-79.388 132.964-105.849 52.709-27.224 109.753-43.489 169.294-48.26 59.541-4.34 118.324 2.492 174.61 21.581 54.116 18.113 104.006 46.199 147.822 83.292 43.489 37.633 79.17 82.098 105.527 133.073 27.328 52.6 43.598 109.322 48.369 169.076z" />
<glyph unicode="&#xe90b;" glyph-name="remove" d="M278.586 717.487l447.928-447.928-45.254-45.254-447.928 447.928 45.254 45.254zM681.35 717.487l45.254-45.254-447.928-447.928-45.254 45.254 447.928 447.928z" />
<glyph unicode="&#xe90c;" glyph-name="arrow-right" d="M79.744 438.857c0 9.152 3.904 17.792 10.688 23.872l521.28 465.472c9.408 8.384 22.912 10.496 34.368 5.312 11.52-5.184 18.944-16.576 18.944-29.248v-930.88c0-12.608-7.424-24.128-18.944-29.248s-24.96-3.008-34.368 5.376l-521.28 465.408c-6.784 6.144-10.688 14.784-10.688 23.936zM601.024 832.841l-441.216-393.984 441.216-393.984v787.968z" />
<glyph unicode="&#xe90d;" glyph-name="arrow-up" d="M512 871.113c9.152 0 17.792-3.904 23.872-10.688l465.472-521.28c8.384-9.408 10.496-22.912 5.312-34.368-5.184-11.52-16.576-18.944-29.248-18.944h-930.88c-12.608 0-24.128 7.424-29.248 18.944s-3.008 24.96 5.376 34.368l465.408 521.28c6.144 6.784 14.784 10.688 23.936 10.688zM905.984 349.833l-393.984 441.216-393.984-441.216h787.968z" />
<glyph unicode="&#xe90e;" glyph-name="arrow-left" d="M944.256 438.857c0-9.152-3.904-17.792-10.688-23.872l-521.28-465.472c-9.408-8.384-22.912-10.496-34.368-5.312-11.52 5.184-18.944 16.576-18.944 29.248v930.88c0 12.608 7.424 24.128 18.944 29.248s24.96 3.008 34.368-5.376l521.28-465.408c6.784-6.144 10.688-14.784 10.688-23.936zM422.976 44.873l441.216 393.984-441.216 393.984v-787.968z" />
<glyph unicode="&#xe90f;" glyph-name="arrow-down" d="M512 6.601c-9.152 0-17.792 3.904-23.872 10.688l-465.472 521.28c-8.384 9.408-10.496 22.912-5.312 34.368 5.184 11.52 16.576 18.944 29.248 18.944h930.88c12.608 0 24.128-7.424 29.248-18.944s3.008-24.96-5.376-34.368l-465.408-521.28c-6.144-6.784-14.784-10.688-23.936-10.688zM118.016 527.881l393.984-441.216 393.984 441.216h-787.968z" />
<glyph unicode="&#xe910;" glyph-name="heart" d="M501.504-31.479c-23.808 0-46.848 9.472-63.232 25.984l-337.472 325.696c-50.176 53.824-78.336 125.248-78.336 200.064 0 162.112 131.2 293.952 292.48 293.952 69.312 0 134.528-23.744 186.56-67.456 52.224 43.904 117.568 67.776 186.944 67.776 161.344 0 292.48-131.904 292.48-294.016 0-18.432-1.664-36.544-4.992-54.336l-18.88-62.080c-13.952-32.512-33.792-62.528-59.072-88.704l-8.192-8c-68.672-68.416-316.224-304.576-325.312-313.088-15.808-16.192-38.528-25.792-62.976-25.792zM314.944 750.281c-125.952 0-228.48-103.168-228.48-229.952 0-58.624 22.016-114.56 62.016-157.504l5.504-5.632 329.152-316.992c10.112-10.048 27.136-9.6 36.544-0.128 11.264 10.624 271.488 258.944 329.664 317.504l6.336 5.696c38.336 40.384 61.312 97.28 61.312 157.312 0 126.848-102.528 230.016-228.48 230.016-62.464 0-120.704-24.768-163.904-69.696l-23.040-24-23.040 24c-43.072 44.736-101.184 69.376-163.584 69.376z" />
<glyph unicode="&#xe911;" glyph-name="in-stock" d="M544.064 22.857c-212.16 0-384.128 171.904-384.128 384 0 212.032 171.968 384 384.128 384 212.032 0 384-171.904 384-384s-171.968-384-384-384zM742.336 584.777c-3.648 12.416-11.904 22.72-23.040 29.184-7.36 4.224-15.744 6.464-24.256 6.464-17.344 0-33.536-9.152-42.368-23.872l-142.656-236.928-73.408 87.488c-9.408 11.328-23.232 17.728-37.824 17.728-10.688 0-20.928-3.392-29.568-9.664-21.056-15.744-26.112-45.12-11.52-66.944l118.464-178.496c9.152-13.888 24.64-22.080 41.152-22.080 0.768 0 1.6 0.064 2.304 0.064 17.344 0.832 33.088 10.88 41.216 25.984l177.856 334.144c5.952 11.456 7.168 24.512 3.648 36.928z" />
<glyph unicode="&#xe912;" glyph-name="out-stock" d="M480 790.857c-212.096 0-384-171.968-384-384 0-212.096 171.904-384 384-384 212.032 0 384 171.904 384 384 0 212.032-171.968 384-384 384zM656.256 294.153c17.536-17.536 17.536-46.080 0-63.552-8.768-8.768-20.224-13.184-31.744-13.184s-22.976 4.416-31.808 13.184l-112.704 112.704-112.704-112.704c-8.832-8.768-20.288-13.184-31.808-13.184s-22.976 4.416-31.744 13.184c-17.536 17.472-17.536 46.016 0 63.552l112.704 112.704-112.704 112.704c-17.536 17.536-17.536 46.016 0 63.552 17.472 17.536 46.016 17.536 63.552 0l112.704-112.704 112.704 112.704c17.536 17.536 46.016 17.536 63.552 0s17.536-46.016 0-63.552l-112.704-112.704 112.704-112.704z" />
<glyph unicode="&#xe913;" glyph-name="email" horiz-adv-x="1028" d="M984.179-42.931h-941.545c-7.624 0-14.415 4.811-16.945 12.001-2.533 7.19-0.248 15.195 5.691 19.97l351.509 282.459c6.528 5.246 15.813 5.282 22.384 0.097l107.983-85.251 104.955 85.103c6.554 5.314 15.913 5.354 22.51 0.097l354.649-282.459c5.972-4.757 8.285-12.773 5.763-19.984-2.515-7.204-9.32-12.033-16.955-12.033zM93.673-7.001h839.112l-303.154 241.448-104.911-85.064c-6.525-5.3-15.852-5.346-22.445-0.147l-108.034 85.287-300.567-241.524zM748.792 710.302h-470.771c-7.631 0-14.426 4.818-16.952 12.019s-0.226 15.209 5.731 19.977l235.387 188.308c6.561 5.249 15.885 5.249 22.445 0l235.383-188.308c5.957-4.768 8.257-12.777 5.731-19.977s-9.327-12.019-16.955-12.019zM329.236 746.232h368.342l-184.173 147.337-184.169-147.337zM513.408 145.374c-3.942 0-7.883 1.29-11.153 3.88l-376.616 298.156c-4.304 3.41-6.812 8.598-6.812 14.084v266.768c0 9.92 8.045 17.965 17.965 17.965h753.236c9.924 0 17.965-8.045 17.965-17.965v-263.631c0-5.458-2.479-10.621-6.744-14.027l-376.616-301.293c-3.28-2.626-7.254-3.938-11.224-3.938zM154.753 470.19l358.594-283.892 358.709 286.972v237.033h-717.303v-240.112zM890.021 446.671c-2.644 0-5.303 0.586-7.779 1.775-6.223 2.993-10.183 9.284-10.183 16.19v147.51c0 6.837 3.884 13.086 10.017 16.111 6.137 3.032 13.452 2.307 18.878-1.854l94.154-72.187c4.383-3.363 6.974-8.551 7.035-14.074 0.057-5.522-2.432-10.765-6.744-14.214l-94.154-75.323c-3.244-2.598-7.218-3.934-11.224-3.934zM907.99 575.734v-73.721l47.057 37.647-47.057 36.074zM136.792 443.534c-4.125 0-8.214 1.419-11.505 4.164l-94.154 78.46c-4.146 3.453-6.518 8.587-6.464 13.98s2.529 10.481 6.74 13.847l94.154 75.323c5.389 4.315 12.773 5.16 19.007 2.163 6.223-2.993 10.183-9.284 10.183-16.19v-153.783c0-6.97-4.031-13.312-10.344-16.269-2.429-1.139-5.030-1.696-7.617-1.696zM71.037 539.671l47.787-39.821v78.054l-47.787-38.233zM42.631-42.931c-2.637 0-5.289 0.578-7.761 1.764-6.234 2.986-10.2 9.288-10.2 16.201v564.921c0 6.913 3.967 13.211 10.2 16.201 6.237 2.989 13.632 2.131 19.018-2.195l351.509-282.462c4.243-3.41 6.712-8.562 6.712-14.002s-2.468-10.592-6.712-14.002l-351.509-282.459c-3.252-2.619-7.236-3.967-11.257-3.967zM60.599 502.473v-489.961l304.865 244.98-304.865 244.98zM984.183-42.931c-3.992 0-7.955 1.329-11.196 3.913l-354.649 282.459c-4.276 3.406-6.773 8.584-6.773 14.052s2.494 10.646 6.773 14.052l354.649 282.462c5.389 4.297 12.773 5.134 18.993 2.131 6.212-2.993 10.165-9.284 10.165-16.183v-564.921c0-6.899-3.952-13.19-10.165-16.183-2.483-1.196-5.149-1.782-7.797-1.782zM658.364 257.493l307.85-245.185v490.374l-307.85-245.189zM764.482 584.763h-502.155c-9.92 0-17.965 8.045-17.965 17.965s8.045 17.965 17.965 17.965h502.155c9.924 0 17.965-8.045 17.965-17.965s-8.041-17.965-17.965-17.965zM764.482 490.609h-502.155c-9.92 0-17.965 8.045-17.965 17.965s8.045 17.965 17.965 17.965h502.155c9.924 0 17.965-8.045 17.965-17.965s-8.041-17.965-17.965-17.965z" />
<glyph unicode="&#xe914;" glyph-name="Quality" horiz-adv-x="707" d="M490.8 265.651c-26.728-10.587-82.739 30.378-111.422 28.683-3.984-0.36-7.657-1.2-11.123-2.47l0.302 0.097c-3.286-9.805-7.823-23.468-13.168-39.479 30.196-64.981 99.532-213.066 130.379-269.599 27.484-50.561 23.912 122.27 49.857 107.824 69.258-38.54 130.067-53.534 116.22-27.093-42.66 81.539-91.266 201.202-118.358 270.094-12.751-26.832-24.59-60.835-42.686-68.058zM261.463 251.075c-27.849 7.145-49.075 73.195-73.378 88.658-3.595 2.192-7.752 3.978-12.162 5.142l-0.328 0.074c-45.528-104.799-114.212-271.189-88.084-263.366 43.077 12.777 107.354 48.11 111.161 20.131 13.925-102.478 39.818-195.986 50.118-156.273 19.114 73.69 68.241 223.992 95.594 306.287 5.346 16.141 9.883 29.648 13.168 39.479-29.257-9.935-71.474-46.441-96.090-40.131zM645.117 541.56c7.145 27.849 63.417 68.449 61.591 97.159s-62.765 61.878-73.378 88.658 11.056 92.648-7.275 114.734-87.146 13.038-111.448 28.683-45.502 81.461-73.378 88.658-78.228-40.574-106.911-42.399-84.694 39.114-111.422 28.553-39.453-78.801-61.591-97.159-91.526-18.097-106.911-42.399 14.42-86.937 7.275-114.734-63.417-68.449-61.591-97.159 62.765-61.878 73.378-88.658-11.056-92.648 7.275-114.734c15.802-19.061 68.971-15.072 98.958-23.468 4.738-1.234 8.896-3.021 12.698-5.333l-0.208 0.117c24.303-15.411 45.502-81.461 73.378-88.658 24.616-6.31 66.806 30.196 96.116 40.026 3.165 1.174 6.838 2.015 10.654 2.361l0.168 0.012c28.683 1.825 84.694-39.114 111.422-28.683 18.253 7.223 29.935 41.226 42.556 67.954 5.893 12.464 11.995 23.468 19.035 29.205 22.165 18.253 91.526 18.123 106.911 42.399s-14.446 87.015-7.301 114.864zM368.087 393.136c-4.363-0.303-9.455-0.476-14.587-0.476-123.534 0-223.679 100.144-223.679 223.679s100.144 223.679 223.679 223.679c118.358 0 215.244-91.927 223.157-208.277l0.038-0.688c0.349-4.672 0.548-10.121 0.548-15.615 0-118.231-92.129-214.945-208.513-222.269l-0.642-0.032zM540.236 628.718c6.855-103.203-71.251-192.422-174.454-199.277s-192.422 71.251-199.277 174.454c-6.855 103.203 71.251 192.422 174.454 199.277s192.422-71.251 199.277-174.454z" />
<glyph unicode="&#xe915;" glyph-name="Lock" horiz-adv-x="723" d="M370.896-52.86h-13.011l-1.961 0.547c-26.372 7.349-118.991 37.849-203.578 121.725-49.754 49.338-87.62 108.436-112.543 175.65-30.408 82.007-41.617 176.604-33.316 281.171v28.44h28.436c93.707 7.551 154.849 28.615 170.153 109.735l4.34 24.804h24.805c45.507 3.614 74.126 5.658 129.158 5.658 52.696 0 79.945-1.725 129.161-5.658h24.797l4.34-24.783c15.545-81.114 76.627-102.195 170.157-109.756h28.433v-28.45c8.153-104.534-3.165-199.124-33.642-281.168-24.946-67.155-62.775-126.244-112.436-175.627-79.928-79.48-167.339-111.562-201.21-121.667l-2.082-0.621zM361.996-23.087h4.528c33.083 10.118 113.108 40.475 186.672 113.627 105.529 104.937 151.739 250.934 137.345 433.934l-0.034 0.438-0.46 0.037c-58.771 4.709-98.44 14.552-128.629 31.915-37.426 21.526-59.997 54.922-69.006 102.096l-0.086 0.479-1.567 0.048c-48.764 3.901-75.55 5.61-127.379 5.61-54.142 0-82.292-2.028-127.389-5.611l-1.557-0.047-0.078-0.44c-19.856-105.523-106.729-126.789-197.65-134.050l-0.456-0.037-0.037-0.459c-14.664-183.167 31.462-329.151 137.096-433.899 78.9-78.237 167.193-107.415 188.687-113.641zM663.372 580.652h-29.773v86.128c0 135.075-127.152 253.561-272.106 253.561s-272.108-118.486-272.108-253.561v-86.128h-29.773v86.128c0 150.935 141.066 283.334 301.881 283.334 39.202 0 77.877-7.721 114.947-22.948 35.584-14.617 67.884-35.359 96.004-61.654 28.191-26.361 50.449-56.682 66.155-90.12 16.438-34.994 24.772-71.537 24.772-108.613v-86.128zM360.234 132.918c-16.637 0-32.279 3.915-44.045 11.025-14.032 8.479-22.080 21.343-22.080 35.295v107.754c-32.664 22.144-52.466 59.393-52.211 99.216 0.199 31.499 12.579 61.107 34.858 83.37 21.985 21.969 51.111 34.297 82.127 34.789v0.013l0.759 0.002 0.581-0.001 0.591 0.001 0.772-0.017c41.748-0.719 80.395-23.493 101.179-59.669 31.196-54.301 14.659-123.165-36.408-157.71v-107.747c0-13.549-8.004-26.259-21.961-34.87-11.966-7.384-27.65-11.451-44.162-11.451zM360.139 474.607c-48.431-0.305-88.16-40.047-88.467-88.589-0.205-32.066 16.938-61.907 44.741-77.879l7.471-4.292v-124.608c0-7.827 14.929-16.548 36.352-16.548 21.853 0 36.352 9.96 36.352 16.548v124.609l7.471 4.292c42.628 24.49 57.384 79.096 32.894 121.725-15.737 27.389-45.133 44.532-76.717 44.742h-0.096z" />
<glyph unicode="&#xe916;" glyph-name="edit" d="M1015.040 742.827l-208.213 208.128c-5.973 5.888-14.165 9.387-22.699 9.387-8.192 0-16.64-3.499-22.528-9.472l-131.243-131.328c0 0 0-0.085-0.171-0.085l-546.901-546.987c-3.072-2.816-5.12-6.315-6.997-10.24-0.085-0.597-0.512-1.195-0.768-1.707-0.171-0.939-0.853-1.877-1.109-2.901l-73.728-282.027c-2.901-10.923 0.427-22.699 8.448-30.635 7.68-8.107 19.627-11.179 30.635-8.363l282.027 73.728c1.024 0.256 1.877 0.853 2.987 1.195 0.597 0.341 1.365 0.683 2.048 0.939 3.669 1.621 6.912 3.755 9.643 6.4l678.656 678.741c5.973 5.973 9.387 13.995 9.387 22.699-0.085 8.448-3.499 16.469-9.472 22.528zM76.373 12.373l45.739 175.104 14.677-14.592 114.773-114.688-175.189-45.824zM313.429 86.699l-162.645 162.816 502.187 502.272 162.816-162.901-502.357-502.187zM861.013 634.283l-162.816 162.731 86.016 86.101 162.901-162.816-86.101-86.016z" />
<glyph unicode="&#xe9d7;" glyph-name="star-empty" d="M1024 562.95l-353.78 51.408-158.22 320.582-158.216-320.582-353.784-51.408 256-249.538-60.432-352.352 316.432 166.358 316.432-166.358-60.434 352.352 256.002 249.538zM512 206.502l-223.462-117.48 42.676 248.83-180.786 176.222 249.84 36.304 111.732 226.396 111.736-226.396 249.836-36.304-180.788-176.222 42.678-248.83-223.462 117.48z" />
<glyph unicode="&#xe9d8;" glyph-name="star-half" d="M1024 562.95l-353.78 51.408-158.22 320.582-158.216-320.582-353.784-51.408 256-249.538-60.432-352.352 316.432 166.358 316.432-166.358-60.434 352.352 256.002 249.538zM512 206.502l-0.942-0.496 0.942 570.768 111.736-226.396 249.836-36.304-180.788-176.222 42.678-248.83-223.462 117.48z" />
<glyph unicode="&#xe9d9;" glyph-name="star-full" d="M1024 562.95l-353.78 51.408-158.22 320.582-158.216-320.582-353.784-51.408 256-249.538-60.432-352.352 316.432 166.358 316.432-166.358-60.434 352.352 256.002 249.538z" />
<glyph unicode="&#xf099;" glyph-name="twitter" horiz-adv-x="951" d="M925.714 717.714c-25.143-36.571-56.571-69.143-92.571-95.429 0.571-8 0.571-16 0.571-24 0-244-185.714-525.143-525.143-525.143-104.571 0-201.714 30.286-283.429 82.857 14.857-1.714 29.143-2.286 44.571-2.286 86.286 0 165.714 29.143 229.143 78.857-81.143 1.714-149.143 54.857-172.571 128 11.429-1.714 22.857-2.857 34.857-2.857 16.571 0 33.143 2.286 48.571 6.286-84.571 17.143-148 91.429-148 181.143v2.286c24.571-13.714 53.143-22.286 83.429-23.429-49.714 33.143-82.286 89.714-82.286 153.714 0 34.286 9.143 65.714 25.143 93.143 90.857-112 227.429-185.143 380.571-193.143-2.857 13.714-4.571 28-4.571 42.286 0 101.714 82.286 184.571 184.571 184.571 53.143 0 101.143-22.286 134.857-58.286 41.714 8 81.714 23.429 117.143 44.571-13.714-42.857-42.857-78.857-81.143-101.714 37.143 4 73.143 14.286 106.286 28.571z" />
<glyph unicode="&#xf0d5;" glyph-name="google-plus" horiz-adv-x="1317" d="M821.143 429.143c0-239.429-160.571-409.143-402.286-409.143-231.429 0-418.857 187.429-418.857 418.857s187.429 418.857 418.857 418.857c113.143 0 207.429-41.143 280.571-109.714l-113.714-109.143c-30.857 29.714-85.143 64.571-166.857 64.571-142.857 0-259.429-118.286-259.429-264.571s116.571-264.571 259.429-264.571c165.714 0 228 119.429 237.714 180.571h-237.714v144h395.429c4-21.143 6.857-42.286 6.857-69.714zM1316.571 498.857v-120h-119.429v-119.429h-120v119.429h-119.429v120h119.429v119.429h120v-119.429h119.429z" />
<glyph unicode="&#xf160;" glyph-name="sort-amount-asc" horiz-adv-x="1041" d="M420.571 128c0-5.143-2.286-9.714-5.714-13.714l-182.286-182.286c-4-3.429-8.571-5.143-13.143-5.143s-9.143 1.714-13.143 5.143l-182.857 182.857c-5.143 5.714-6.857 13.143-4 20s9.714 11.429 17.143 11.429h109.714v786.286c0 10.286 8 18.286 18.286 18.286h109.714c10.286 0 18.286-8 18.286-18.286v-786.286h109.714c10.286 0 18.286-8 18.286-18.286zM1024 54.857v-109.714c0-10.286-8-18.286-18.286-18.286h-475.429c-10.286 0-18.286 8-18.286 18.286v109.714c0 10.286 8 18.286 18.286 18.286h475.429c10.286 0 18.286-8 18.286-18.286zM914.286 347.428v-109.714c0-10.286-8-18.286-18.286-18.286h-365.714c-10.286 0-18.286 8-18.286 18.286v109.714c0 10.286 8 18.286 18.286 18.286h365.714c10.286 0 18.286-8 18.286-18.286zM804.571 640v-109.714c0-10.286-8-18.286-18.286-18.286h-256c-10.286 0-18.286 8-18.286 18.286v109.714c0 10.286 8 18.286 18.286 18.286h256c10.286 0 18.286-8 18.286-18.286zM694.857 932.571v-109.714c0-10.286-8-18.286-18.286-18.286h-146.286c-10.286 0-18.286 8-18.286 18.286v109.714c0 10.286 8 18.286 18.286 18.286h146.286c10.286 0 18.286-8 18.286-18.286z" />
<glyph unicode="&#xf161;" glyph-name="sort-amount-desc" horiz-adv-x="1041" d="M694.857 54.857v-109.714c0-10.286-8-18.286-18.286-18.286h-146.286c-10.286 0-18.286 8-18.286 18.286v109.714c0 10.286 8 18.286 18.286 18.286h146.286c10.286 0 18.286-8 18.286-18.286zM420.571 128c0-5.143-2.286-9.714-5.714-13.714l-182.286-182.286c-4-3.429-8.571-5.143-13.143-5.143s-9.143 1.714-13.143 5.143l-182.857 182.857c-5.143 5.714-6.857 13.143-4 20s9.714 11.429 17.143 11.429h109.714v786.286c0 10.286 8 18.286 18.286 18.286h109.714c10.286 0 18.286-8 18.286-18.286v-786.286h109.714c10.286 0 18.286-8 18.286-18.286zM804.571 347.428v-109.714c0-10.286-8-18.286-18.286-18.286h-256c-10.286 0-18.286 8-18.286 18.286v109.714c0 10.286 8 18.286 18.286 18.286h256c10.286 0 18.286-8 18.286-18.286zM914.286 640v-109.714c0-10.286-8-18.286-18.286-18.286h-365.714c-10.286 0-18.286 8-18.286 18.286v109.714c0 10.286 8 18.286 18.286 18.286h365.714c10.286 0 18.286-8 18.286-18.286zM1024 932.571v-109.714c0-10.286-8-18.286-18.286-18.286h-475.429c-10.286 0-18.286 8-18.286 18.286v109.714c0 10.286 8 18.286 18.286 18.286h475.429c10.286 0 18.286-8 18.286-18.286z" />
</font>
</defs>
</svg>
