<?xml version="1.0" encoding="iso-8859-1"?>
<!-- Generator: Adobe Illustrator 22.0.0, SVG Export Plug-In . SVG Version: 6.00 Build 0)  -->
<svg version="1.1" id="Layer_1" xmlns="http://www.w3.org/2000/svg" xmlns:xlink="http://www.w3.org/1999/xlink" x="0px" y="0px"
	 viewBox="0 0 392.56 375.98" style="enable-background:new 0 0 392.56 375.98;" xml:space="preserve">
<title>Envelope</title>
<g id="Layer_2_1_">
	<g id="Layer_1-2">
		<g>
			<defs>
				<rect id="SVGID_1_" y="0.14" width="392.88" height="376.8"/>
			</defs>
			<clipPath id="SVGID_2_">
				<use xlink:href="#SVGID_1_"  style="overflow:visible;"/>
			</clipPath>
			<g style="clip-path:url(#SVGID_2_);">
				<path style="fill:#387c2b;" d="M389,148.54c-1.758-3.279-4.135-6.186-7-8.56L230,12.3c-19.549-16.4-48.051-16.4-67.6,0
					L48.48,108c-5.834,5.421-6.168,14.546-0.746,20.379c5.039,5.422,13.365,6.148,19.266,1.681l114-95.68
					c8.828-7.44,21.732-7.44,30.56,0l143.6,120.56l-61,41.6c-6.543,4.511-8.19,13.473-3.678,20.015
					c4.485,6.505,13.377,8.177,19.918,3.745l53.36-36.4v143l-122-122c-25.189-25.172-66.011-25.172-91.2,0l-15.92,15.92L23.28,145.5
					c-6.548-4.454-15.468-2.756-19.922,3.792c-0.702,1.032-1.266,2.15-1.678,3.328c-1.113,3.106-1.681,6.381-1.68,9.68v184.4
					c-0.027,7.749,3.057,15.185,8.56,20.64c5.55,5.611,14.598,5.661,20.209,0.111c0.037-0.037,0.074-0.074,0.111-0.111
					c0.08-0.08,0.16-0.24,0.24-0.32L171,225.18c13.938-13.867,36.462-13.867,50.4,0l122,122H86.56
					c-7.953-0.007-14.406,6.434-14.413,14.387c-0.007,7.953,6.434,14.406,14.387,14.413c0.008,0,0.017,0,0.025,0h276.72
					c7.588,0.003,14.877-2.953,20.32-8.24c0.16-0.08,0.24-0.24,0.4-0.32l0.32-0.32c5.287-5.443,8.243-12.732,8.24-20.32v-184.4
					C392.559,157.54,391.335,152.779,389,148.54z M28.72,326.78V184l85.2,57.6L28.72,326.78z"/>
			</g>
		</g>
	</g>
</g>
</svg>
