<?xml version="1.0" encoding="utf-8"?>
<!-- Generator: Adobe Illustrator 16.0.0, SVG Export Plug-In . SVG Version: 6.00 Build 0)  -->
<!DOCTYPE svg PUBLIC "-//W3C//DTD SVG 1.1//EN" "http://www.w3.org/Graphics/SVG/1.1/DTD/svg11.dtd">
<svg version="1.1" id="Шар_1" xmlns="http://www.w3.org/2000/svg" xmlns:xlink="http://www.w3.org/1999/xlink" x="0px" y="0px"
	 width="115.755px" height="70.049px" viewBox="0 0 115.755 70.049" enable-background="new 0 0 115.755 70.049"
	 xml:space="preserve">
<g>
	<defs>
		<rect id="SVGID_1_" y="0" width="115.755" height="70.049"/>
	</defs>
	<clipPath id="SVGID_2_">
		<use xlink:href="#SVGID_1_"  overflow="visible"/>
	</clipPath>
	<path clip-path="url(#SVGID_2_)" fill="#D6A667" d="M115.755,35.025c0.005,19.339-15.501,35.019-34.635,35.024
		c-19.133,0.005-34.646-15.667-34.65-35.006v-0.018C46.464,15.686,61.971,0.005,81.104,0s34.646,15.668,34.651,35.007V35.025
		C115.755,35.025,115.755,35.019,115.755,35.025"/>
	<path clip-path="url(#SVGID_2_)" fill="#D36767" d="M34.419,0.009C15.4,0.131,0,15.772,0,35.025
		c0,19.328,15.52,35.016,34.642,35.016c8.975,0,17.156-3.457,23.312-9.123c0,0-0.001-0.001-0.003-0.002h0.008
		c1.261-1.161,2.437-2.414,3.517-3.749h-7.097c-0.948-1.158-1.809-2.363-2.583-3.607h12.241c0.744-1.204,1.418-2.455,2.018-3.75
		H49.774c-0.555-1.202-1.036-2.431-1.448-3.679h19.176c1.156-3.49,1.783-7.225,1.783-11.106c0-2.573-0.275-5.082-0.799-7.498H47.31
		c0.262-1.243,0.593-2.471,0.988-3.678H67.48c-0.429-1.285-0.927-2.536-1.493-3.75H49.772c0.585-1.263,1.248-2.491,1.988-3.678
		h12.232c-0.813-1.31-1.715-2.563-2.688-3.749h-6.82c1.055-1.254,2.215-2.436,3.476-3.537c-6.157-5.667-14.34-9.125-23.317-9.125
		C34.568,0.009,34.494,0.009,34.419,0.009C34.419,0.009,34.494,0.009,34.419,0.009"/>
	<path clip-path="url(#SVGID_2_)" fill="#FFFFFF" d="M47.1,43.94l0.462-3.169c-0.252,0-0.623,0.109-0.951,0.109
		c-1.284,0-1.425-0.69-1.344-1.2l1.038-6.466h1.951l0.471-3.506h-1.84l0.375-2.179h-3.689c-0.081,0.082-2.177,12.26-2.177,13.742
		c0,2.196,1.22,3.173,2.939,3.157C45.682,44.417,46.73,44.04,47.1,43.94C47.1,43.94,46.73,44.04,47.1,43.94"/>
	<path clip-path="url(#SVGID_2_)" fill="#FFFFFF" d="M48.269,37.898c0,5.27,3.44,6.521,6.371,6.521c2.706,0,3.897-0.612,3.897-0.612
		l0.648-3.596c0,0-2.058,0.917-3.916,0.917c-3.961,0-3.267-2.985-3.267-2.985h7.495c0,0,0.483-2.416,0.483-3.4
		c0-2.457-1.209-5.45-5.259-5.45C51.014,29.294,48.269,33.333,48.269,37.898C48.269,37.898,48.269,33.333,48.269,37.898
		 M54.737,32.632c2.082,0,1.698,2.364,1.698,2.556H52.34C52.34,34.943,52.727,32.632,54.737,32.632
		C54.737,32.632,52.727,32.632,54.737,32.632"/>
	<path clip-path="url(#SVGID_2_)" fill="#FFFFFF" d="M78.094,43.938l0.66-4.064c0,0-1.811,0.918-3.052,0.918
		c-2.616,0-3.666-2.021-3.666-4.189c0-4.402,2.251-6.823,4.758-6.823c1.879,0,3.387,1.067,3.387,1.067l0.603-3.949
		c0,0-2.236-0.915-4.154-0.915c-4.258,0-8.4,3.734-8.4,10.746c0,4.65,2.237,7.722,6.638,7.722
		C76.111,44.45,78.094,43.938,78.094,43.938"/>
	<path clip-path="url(#SVGID_2_)" fill="#FFFFFF" d="M26.813,29.351c-2.529,0-4.468,0.822-4.468,0.822l-0.535,3.211
		c0,0,1.6-0.657,4.019-0.657c1.373,0,2.378,0.156,2.378,1.285c0,0.685-0.123,0.938-0.123,0.938s-1.083-0.092-1.585-0.092
		c-3.19,0-6.541,1.376-6.541,5.525c0,3.269,2.198,4.019,3.561,4.019c2.602,0,3.724-1.707,3.784-1.712l-0.122,1.425h3.248
		l1.449-10.268C31.878,29.491,28.119,29.351,26.813,29.351 M27.604,37.711c0.07,0.627-0.389,3.566-2.61,3.566
		c-1.145,0-1.443-0.884-1.443-1.408c0-1.02,0.548-2.244,3.251-2.244C27.43,37.626,27.497,37.694,27.604,37.711
		C27.604,37.711,27.497,37.694,27.604,37.711"/>
	<path clip-path="url(#SVGID_2_)" fill="#FFFFFF" d="M35.33,44.327c0.831,0,5.58,0.213,5.58-4.74c0-4.632-4.396-3.717-4.396-5.577
		c0-0.927,0.717-1.218,2.026-1.218c0.52,0,2.521,0.167,2.521,0.167l0.465-3.292c0,0-1.295-0.293-3.403-0.293
		c-2.728,0-5.498,1.101-5.498,4.868c0,4.27,4.618,3.84,4.618,5.638c0,1.201-1.29,1.299-2.284,1.299
		c-1.721,0-3.271-0.598-3.276-0.568l-0.492,3.259C31.28,43.896,32.236,44.327,35.33,44.327C35.33,44.327,32.236,44.327,35.33,44.327
		"/>
	<path clip-path="url(#SVGID_2_)" fill="#FFFFFF" d="M108.646,26.396l-0.796,4.99c0,0-1.388-1.938-3.562-1.938
		c-3.379,0-6.196,4.119-6.196,8.851c0,3.056,1.502,6.048,4.574,6.048c2.209,0,3.434-1.557,3.434-1.557l-0.162,1.33h3.588
		l2.817-17.729L108.646,26.396z M106.934,36.126c0,1.969-0.965,4.601-2.964,4.601c-1.328,0-1.95-1.127-1.95-2.895
		c0-2.891,1.285-4.798,2.905-4.798C106.253,33.035,106.934,33.957,106.934,36.126C106.934,36.126,106.934,33.957,106.934,36.126"/>
	<polygon clip-path="url(#SVGID_2_)" fill="#FFFFFF" points="6.842,44.136 9.087,30.751 9.417,44.136 11.958,44.136 16.699,30.751 
		14.599,44.136 18.375,44.136 21.283,26.383 15.444,26.383 11.807,37.276 11.618,26.383 6.236,26.383 3.286,44.136 	"/>
	<path clip-path="url(#SVGID_2_)" fill="#FFFFFF" d="M63.671,44.161c1.074-6.171,1.273-11.182,3.835-10.265
		c0.448-2.389,0.881-3.313,1.37-4.323c0,0-0.229-0.049-0.711-0.049c-1.652,0-2.875,2.281-2.875,2.281l0.328-2.095h-3.435
		l-2.301,14.451H63.671z"/>
	<path clip-path="url(#SVGID_2_)" fill="#FFFFFF" d="M86.604,29.351c-2.529,0-4.468,0.822-4.468,0.822l-0.535,3.211
		c0,0,1.601-0.657,4.02-0.657c1.373,0,2.377,0.156,2.377,1.285c0,0.685-0.122,0.938-0.122,0.938s-1.083-0.092-1.585-0.092
		c-3.19,0-6.541,1.376-6.541,5.525c0,3.269,2.198,4.019,3.561,4.019c2.603,0,3.725-1.707,3.783-1.712l-0.121,1.425h3.248
		l1.449-10.268C91.67,29.491,87.911,29.351,86.604,29.351 M87.396,37.711c0.07,0.627-0.389,3.566-2.61,3.566
		c-1.146,0-1.443-0.884-1.443-1.408c0-1.02,0.549-2.244,3.251-2.244C87.222,37.626,87.289,37.694,87.396,37.711
		C87.396,37.711,87.289,37.694,87.396,37.711"/>
	<path clip-path="url(#SVGID_2_)" fill="#FFFFFF" d="M94.638,44.161c1.074-6.171,1.273-11.182,3.834-10.265
		c0.45-2.389,0.884-3.313,1.372-4.323c0,0-0.229-0.049-0.711-0.049c-1.651,0-2.876,2.281-2.876,2.281l0.329-2.095h-3.434
		l-2.301,14.451H94.638z"/>
</g>
</svg>
