<?xml version="1.0" encoding="utf-8"?>
<!-- Generator: Adobe Illustrator 16.0.0, SVG Export Plug-In . SVG Version: 6.00 Build 0)  -->
<!DOCTYPE svg PUBLIC "-//W3C//DTD SVG 1.1//EN" "http://www.w3.org/Graphics/SVG/1.1/DTD/svg11.dtd">
<svg version="1.1" id="Шар_1" xmlns="http://www.w3.org/2000/svg" xmlns:xlink="http://www.w3.org/1999/xlink" x="0px" y="0px"
	 width="101.497px" height="31.798px" viewBox="0 0 101.497 31.798" enable-background="new 0 0 101.497 31.798"
	 xml:space="preserve">
<g>
	<defs>
		<rect id="SVGID_1_" y="0" width="101.497" height="31.798"/>
	</defs>
	<clipPath id="SVGID_2_">
		<use xlink:href="#SVGID_1_"  overflow="visible"/>
	</clipPath>
	<path clip-path="url(#SVGID_2_)" fill="#2B73A0" d="M73.773,1.294C72.146,0.67,69.595,0,66.409,0
		c-8.12,0-13.84,4.178-13.889,10.166c-0.046,4.427,4.083,6.896,7.2,8.37c3.199,1.511,4.274,2.474,4.259,3.821
		c-0.02,2.065-2.554,3.008-4.916,3.008c-3.289,0-5.037-0.467-7.734-1.617l-1.06-0.488l-1.154,6.896
		c1.92,0.86,5.469,1.605,9.154,1.644c8.639,0,14.245-4.131,14.31-10.524c0.03-3.505-2.158-6.172-6.899-8.37
		c-2.872-1.425-4.631-2.376-4.613-3.819c0-1.281,1.489-2.65,4.706-2.65c2.688-0.043,4.635,0.556,6.151,1.18l0.736,0.356
		L73.773,1.294"/>
	<path clip-path="url(#SVGID_2_)" fill="#2B73A0" d="M94.846,0.564h-6.35c-1.968,0-3.439,0.549-4.304,2.555L71.988,31.351h8.63
		c0,0,1.41-3.797,1.729-4.63c0.943,0,9.326,0.014,10.524,0.014c0.246,1.079,1,4.616,1,4.616h7.625L94.846,0.564z M84.713,20.42
		c0.68-1.774,3.273-8.612,3.273-8.612c-0.049,0.082,0.675-1.783,1.091-2.94l0.555,2.656c0,0,1.573,7.354,1.902,8.896H84.713z"/>
	<polygon clip-path="url(#SVGID_2_)" fill="#2B73A0" points="35.756,31.341 40.894,0.535 49.111,0.535 43.97,31.341 	"/>
	<path clip-path="url(#SVGID_2_)" fill="#2B73A0" d="M28.864,0.558l-8.045,21.007l-0.857-4.269
		C18.464,12.375,13.798,7.043,8.581,4.374l7.356,26.941l8.695-0.01L37.568,0.558H28.864"/>
	<path clip-path="url(#SVGID_2_)" fill="#D6A667" d="M13.355,0.539H0.104L0,1.18c10.308,2.55,17.13,8.712,19.961,16.116L17.081,3.14
		C16.583,1.189,15.141,0.607,13.355,0.539"/>
</g>
</svg>
